# xmcd CD database file
#
# Track frame offsets:
#	150
#	19365
#	43375
#	58422
#	69962
#	81427
#	110620
#	130307
#	147715
#	168295
#	183530
#	211107
#	226302
#	239895
#
# Disc length: 3521 seconds
#
# Revision: 2
# Processed by: cddbd v1.5PL3 Copyright (c) Steve Scherf et al.
# Submitted via: CDex 1.51
#
DISCID=dd0dbf0e
DTITLE=Various Artist - Women In Blue CD2
DYEAR=2003
DGENRE=Blues
TTITLE0=Natalie cole-ask a woman who know
TTITLE1=Dinah Washington-blue gardenia
TTITLE2=Anita o'day-a woman alone whith the blues
TTITLE3=Ella Fizgerald-ella's contribution to the blues
TTITLE4=Nina Simone-I loves you porgy
TTITLE5=Claudia Acuna-my man's gone now
TTITLE6=Carmen McRae-my funny valentine
TTITLE7=Sarah Vaughan-my man
TTITLE8=Silje Nergaard-don't explain
TTITLE9=Billie Holiday-billie's blue
TTITLE10=Dee Dee Bridgwater-doodlin'
TTITLE11=Jeanna Lee-goodbye pork pie hat
TTITLE12=Shierley Horn-sharing the night with the blues
TTITLE13=Javetta Steele-calling you
EXTD=YEAR: 2003
EXTT0=
EXTT1=
EXTT2=
EXTT3=
EXTT4=
EXTT5=
EXTT6=
EXTT7=
EXTT8=
EXTT9=
EXTT10=
EXTT11=
EXTT12=
EXTT13=
PLAYORDER=
